<?xml version="1.0" encoding="utf-8"?>
<!-- Uploaded to: SVG Repo, www.svgrepo.com, Generator: SVG Repo Mixer Tools -->
<svg fill="#000000" height="800px" width="800px" version="1.1" id="Layer_1" xmlns="http://www.w3.org/2000/svg" xmlns:xlink="http://www.w3.org/1999/xlink" 
	 viewBox="0 0 128 128" xml:space="preserve">
<path d="M47.4,53.2c1,0,1.9-0.9,1.9-1.9l0-12c0-1-0.9-1.9-1.9-1.9H19.8c-1,0-1.9,0.9-1.9,1.9l0,12c0,1,0.9,1.9,1.9,1.9H47.4z
	 M87,37.3c0.5,0,0.9-0.4,0.9-0.9c0-0.2,0-0.3-0.2-0.5l-4.4-6.3c-0.2-0.2-0.4-0.3-0.7-0.3H73c-0.9,0-1.6,0.7-1.6,1.6v4.9
	c0,0.9,0.7,1.6,1.6,1.6H87z M84.1,25.5c0.9,0,1.7,0.4,2.2,1l8.3,12c0.2,0.3,0.3,0.6,0.3,1c0,0.9-0.8,1.6-1.7,1.6l-14.3,0
	c-4.9,0-8.9,4-8.9,8.9v14.5H4.7V34.6c0,0-0.5-9.1,8.9-9.1L84.1,25.5z"/>
<path d="M103.9,66.5l-18.4,0c-1.6,0-3-1.3-3-3V54c0-1.7,1.3-3,2.9-3h10c0.5,0,1,0.2,1.3,0.6l8.5,12.2c0.2,0.3,0.3,0.6,0.3,1
	C105.6,65.8,104.8,66.5,103.9,66.5 M120,76.7v-6.3c0-2.5-1.6-4.7-3.8-5.5l-5.5-1.8L99.8,47.4c-0.5-0.6-1.4-1-2.2-1H80.3
	c-2.8,0-5.1,2.3-5.1,5.1l0,18.4H4.7V83c0,1.9,1.6,3.5,3.5,3.5h9.3c0.5-7.7,8.3-13.9,16.1-13.9s15.6,6.1,16.2,13.9h34.6
	c0.6-7.7,8.3-13.8,16.2-13.8c7.8,0,15.6,6.1,16.1,13.8h3.1c1.9,0,3.5-1.6,3.5-3.5v-6.4H120z"/>
<path d="M100.5,93.7c2.6,0,4.6-2.1,4.6-4.6c0-2.6-2.1-4.6-4.6-4.6c-2.6,0-4.6,2.1-4.6,4.6C95.9,91.6,98,93.7,100.5,93.7 M89.9,89.1
	c0-5.9,4.8-10.7,10.7-10.7c5.9,0,10.7,4.8,10.7,10.7c0,5.9-4.8,10.7-10.7,10.7C94.6,99.7,89.9,95,89.9,89.1"/>
<path d="M33.6,93.5c2.6,0,4.6-2.1,4.6-4.6c0-2.6-2.1-4.6-4.6-4.6c-2.6,0-4.6,2.1-4.6,4.6C29,91.4,31.1,93.5,33.6,93.5 M22.9,88.9
	c0-5.9,4.8-10.7,10.7-10.7c5.9,0,10.7,4.8,10.7,10.7c0,5.9-4.8,10.7-10.7,10.7C27.7,99.5,22.9,94.8,22.9,88.9"/>
</svg>